#!OML:ASF H:\Terrain\Patient Classification 1\Walking\steve\steve.ASF
:FULLY-SPECIFIED
:DEGREES
48
root 6.74205 14.7882 -26.7255 8.09602 3.06853 1.33531
lowerback 2.38303 -2.09167 0.539793
upperback -4.17772 -2.63377 2.81614
thorax -5.55626 -1.2639 2.80977
lowerneck -9.05214 0.315757 -3.1457
upperneck 8.86804 0.82049 0.256405
head 4.57154 0.306116 0.709264
rclavicle 1.96548e-014 -2.06736e-014
rhumerus -80.6267 -28.0973 -22.2217
rradius 12.042
rwrist 46.5018
rhand -18.9115 -34.172
rfingers 7.12502
rthumb 7.39058 -64.0229
lclavicle 1.96548e-014 -2.06736e-014
lhumerus -4.19225 -8.29162 84.6475
lradius 54.9635
lwrist 25.8475
lhand -28.1504 -16.6596
lfingers 7.12502
lthumb -1.53114 13.3146
rfemur -49.5812 2.372 22.5438
rtibia 48.2946
rfoot -7.9674 4.34875
rtoes 4.72139
lfemur 14.0351 -3.83298 -23.1787
ltibia 33.0198
lfoot 23.8865 11.2249
ltoes 13.373
49
root 6.72862 14.8377 -26.4751 8.04847 2.9894 1.20987
lowerback 2.3664 -1.92965 0.567011
upperback -4.11517 -2.41553 2.84486
thorax -5.4901 -1.15678 2.80644
lowerneck -9.23696 0.243195 -2.94715
upperneck 9.41792 0.714273 0.160539
head 4.3204 0.25511 0.573212
rclavicle 2.13445e-014 -1.82882e-014
rhumerus -81.1768 -29.7373 -20.2991
rradius 11.9217
rwrist 48.946
rhand -17.9409 -35.2342
rfingers 7.12502
rthumb 8.3274 -65.05
lclavicle 2.13445e-014 -1.82882e-014
lhumerus -5.4522 -8.24865 85.3232
lradius 54.4297
lwrist 25.8756
lhand -28.1066 -15.9056
lfingers 7.12502
lthumb -1.48886 14.069
rfemur -48.5899 2.49853 22.8935
rtibia 48.5113
rfoot -8.58451 4.6058
rtoes 5.66564
lfemur 11.9297 -3.31818 -22.757
ltibia 36.8784
lfoot 24.6961 12.178
ltoes 10.0071
50
root 6.71807 14.8842 -26.23 7.98288 2.98335 0.963399
lowerback 2.20059 -1.81787 0.705571
upperback -3.88793 -2.26534 2.90306
thorax -5.16603 -1.09011 2.76444
lowerneck -10.0381 0.203492 -2.42448
upperneck 10.0077 0.662581 -0.23346
head 4.63875 0.218045 0.367222
rclavicle 4.07509e-015 -2.38542e-015
rhumerus -80.4895 -31.1379 -20.9069
rradius 12.0598
rwrist 49.7367
rhand -16.213 -36.0714
rfingers 7.12502
rthumb 9.99469 -65.8141
lclavicle 4.07509e-015 -2.38542e-015
lhumerus -6.50094 -8.04361 85.8643
lradius 53.7942
lwrist 25.7933
lhand -28.0887 -15.3453
lfingers 7.12502
lthumb -1.47159 14.6294
rfemur -47.4637 2.83955 23.259
rtibia 48.5852
rfoot -9.64648 4.41817
rtoes 5.29595
lfemur 9.85468 -2.88081 -22.2354
ltibia 40.4795
lfoot 24.4421 11.8867
ltoes 6.14893
51
root 6.71175 14.9156 -25.9961 7.77627 2.93442 0.567317
lowerback 2.28899 -1.65153 1.00864
upperback -3.7466 -2.02298 3.03807
thorax -5.08455 -0.979378 2.71839
lowerneck -10.1698 0.117861 -2.49736
upperneck 10.1674 0.556521 -0.171727
head 4.71075 0.16522 0.391437
rclavicle 1.93567e-014 5.56597e-015
rhumerus -80.3195 -32.5809 -20.4779
rradius 12.0828
rwrist 51.1972
rhand -15.3741 -36.2535
rfingers 7.12502
rthumb 10.8039 -65.9556
lclavicle 1.93567e-014 5.56597e-015
lhumerus -7.80318 -7.80129 86.6109
lradius 53.0942
lwrist 25.6362
lhand -27.9907 -15.3639
lfingers 7.12502
lthumb -1.37694 14.6114
rfemur -46.2633 2.6285 24.0007
rtibia 48.624
rfoot -10.3824 4.80275
rtoes 5.47815
lfemur 8.01323 -2.39255 -21.6254
ltibia 43.8387
lfoot 22.5578 10.9214
ltoes 4.18521
52
root 6.7059 14.9464 -25.7687 7.61441 2.64654 0.329894
lowerback 2.49535 -1.34255 1.13566
upperback -3.76484 -1.59111 3.14429
thorax -5.23913 -0.76619 2.73685
lowerneck -9.8983 0.00865992 -2.86833
upperneck 10.2341 0.439594 -0.0268843
head 4.68667 0.102206 0.488089
rclavicle -8.54774e-015 1.51076e-014
rhumerus -80.196 -33.8398 -20.0404
rradius 12.0573
rwrist 52.368
rhand -15.7034 -36.6187
rfingers 7.12502
rthumb 10.4863 -66.3372
lclavicle -8.54774e-015 1.51076e-014
lhumerus -9.36711 -7.85325 87.5861
lradius 52.2969
lwrist 25.68
lhand -27.8907 -15.4661
lfingers 7.12502
lthumb -1.2803 14.5098
rfemur -45.1766 2.2806 24.6235
rtibia 48.6405
rfoot -10.8308 5.61849
rtoes 5.63374
lfemur 6.17585 -1.51115 -21.1784
ltibia 46.9576
lfoot 20.2675 9.1877
ltoes 1.83262
53
root 6.70137 14.997 -25.5353 7.66351 2.34991 0.00990264
lowerback 2.35274 -0.984179 1.46561
upperback -3.74591 -1.0982 3.17353
thorax -5.16247 -0.533853 2.54405
lowerneck -10.1159 -0.168945 -2.668
upperneck 10.6808 0.232588 -0.435301
head 4.86518 -0.0227784 0.315526
rclavicle 6.53505e-015 -1.90833e-014
rhumerus -79.2646 -34.9528 -21.2228
rradius 12.0229
rwrist 52.2359
rhand -16.6011 -37.0964
rfingers 7.12502
rthumb 9.62021 -66.8567
lclavicle 6.53505e-015 -1.90833e-014
lhumerus -10.6854 -8.40043 88.3888
lradius 51.2331
lwrist 25.8378
lhand -28.1907 -15.6532
lfingers 7.12502
lthumb -1.57014 14.3208
rfemur -44.1601 2.24327 25.1439
rtibia 48.6014
rfoot -11.521 6.35228
rtoes 6.07617
lfemur 4.02463 -0.719747 -20.6406
ltibia 49.8703
lfoot 17.82 7.43083
ltoes 0.0536195
54
root 6.69803 15.0611 -25.2949 7.64707 2.22933 -0.324149
lowerback 2.09247 -0.768937 1.85662
upperback -3.53595 -0.808784 3.16834
thorax -4.8093 -0.405748 2.28992
lowerneck -10.5301 -0.316325 -2.39945
upperneck 10.9313 0.0383678 -0.66992
head 5.01433 -0.126038 0.184962
rclavicle -1.61513e-015 -3.97569e-015
rhumerus -76.8026 -35.7199 -24.8246
rradius 12.1276
rwrist 50.3065
rhand -16.6149 -37.1219
rfingers 7.12502
rthumb 9.60689 -66.8828
lclavicle -1.61513e-015 -3.97569e-015
lhumerus -11.4299 -8.3748 88.9422
lradius 49.4826
lwrist 25.5989
lhand -28.401 -15.8043
lfingers 7.12502
lthumb -1.77323 14.1681
rfemur -42.9492 2.19189 25.6023
rtibia 48.464
rfoot -12.2989 6.87606
rtoes 5.01607
lfemur 1.9711 -0.303912 -20.1891
ltibia 52.5674
lfoot 15.172 5.31003
ltoes -3.845
55
root 6.69127 15.1305 -25.0523 7.59925 2.05111 -0.401428
lowerback 1.86597 -0.5447 1.88448
upperback -3.32833 -0.52574 3.13105
thorax -4.47098 -0.266772 2.21075
lowerneck -10.9577 -0.442569 -2.35361
upperneck 11.2304 -0.123631 -0.660115
head 5.18027 -0.206882 0.167797
rclavicle -1.83876e-015 -2.8625e-014
rhumerus -74.1528 -36.4661 -28.416
rradius 12.2595
rwrist 48.5128
rhand -16.471 -35.7066
rfingers 7.12502
rthumb 9.74574 -65.4611
lclavicle -1.83876e-015 -2.8625e-014
lhumerus -11.6328 -8.02412 89.5547
lradius 46.387
lwrist 25.307
lhand -28.3693 -16.6583
lfingers 7.12502
lthumb -1.7426 13.3143
rfemur -41.7714 1.99831 25.8683
rtibia 48.1826
rfoot -12.8683 7.18438
rtoes 1.64881
lfemur -0.00356086 0.439404 -19.9103
ltibia 54.966
lfoot 12.9696 3.3818
ltoes -8.83822
56
root 6.68358 15.1875 -24.8176 7.60778 1.65501 -0.401521
lowerback 1.69114 -0.197926 1.74944
upperback -3.31633 -0.0756293 3.1013
thorax -4.36946 -0.0385845 2.22832
lowerneck -11.428 -0.548258 -2.09594
upperneck 12.0539 -0.241905 -0.974557
head 5.51697 -0.285334 0.0164516
rclavicle -1.06847e-014 -7.15625e-015
rhumerus -72.4128 -37.6657 -30.2489
rradius 12.2621
rwrist 48.3259
rhand -17.0303 -33.3539
rfingers 7.12502
rthumb 9.20609 -63.1329
lclavicle -1.06847e-014 -7.15625e-015
lhumerus -11.5384 -9.44356 90.094
lradius 41.8562
lwrist 26.4744
lhand -29.0477 -18.4093
lfingers 7.12502
lthumb -2.39777 11.557
rfemur -40.6629 1.91469 26.0633
rtibia 47.7769
rfoot -13.4129 7.67318
rtoes 0.476181
lfemur -2.06475 1.53431 -19.6766
ltibia 57.0801
lfoot 11.2162 3.17021
ltoes -8.49654
57
root 6.67989 15.2329 -24.589 7.46174 1.32456 -0.400724
lowerback 1.63407 0.0719289 1.67725
upperback -3.34654 0.279946 3.05906
thorax -4.37764 0.140209 2.20571
lowerneck -10.8651 -0.61352 -2.38869
upperneck 12.1286 -0.340907 -0.654132
head 5.44693 -0.323184 0.158147
rclavicle 1.31943e-014 -2.70347e-014
rhumerus -69.5321 -38.041 -33.8808
rradius 12.3768
rwrist 46.6303
rhand -17.5954 -32.7595
rfingers 7.12502
rthumb 8.66079 -62.5618
lclavicle 1.31943e-014 -2.70347e-014
lhumerus -14.5146 -6.90656 91.0323
lradius 42.8027
lwrist 23.9915
lhand -28.3924 -16.8847
lfingers 7.12502
lthumb -1.76489 13.0878
rfemur -39.258 1.86395 26.1915
rtibia 47.276
rfoot -14.1194 8.26178
rtoes 1.77584
lfemur -3.93787 2.38134 -19.55
ltibia 58.9046
lfoot 9.68991 3.14645
ltoes -8.54998
58
root 6.67619 15.2887 -24.3544 7.33302 1.14969 -0.543556
lowerback 1.4678 0.273068 1.80978
upperback -3.36879 0.54838 3.0549
thorax -4.31229 0.269491 2.11283
lowerneck -10.5171 -0.703923 -2.31472
upperneck 12.4255 -0.451978 -0.867546
head 5.48142 -0.391463 0.0712189
rclavicle 2.70844e-015 2.14687e-014
rhumerus -65.806 -37.7309 -38.7494
rradius 12.5967
rwrist 43.7111
rhand -17.9787 -33.643
rfingers 7.12502
rthumb 8.29093 -63.4604
lclavicle 2.70844e-015 2.14687e-014
lhumerus -16.6124 -5.67711 91.5875
lradius 41.9596
lwrist 22.7142
lhand -28.0045 -15.7795
lfingers 7.12502
lthumb -1.39023 14.1957
rfemur -37.7985 1.77647 26.4414
rtibia 46.7209
rfoot -14.8561 8.73537
rtoes 2.70531
lfemur -5.82699 3.09917 -19.2346
ltibia 60.4701
lfoot 7.42939 2.27573
ltoes -11.9498
59
root 6.67028 15.3498 -24.1154 7.41766 0.954406 -0.8126
lowerback 1.11161 0.515808 2.01853
upperback -3.3931 0.868331 3.09275
thorax -4.14094 0.423154 2.0207
lowerneck -10.3416 -0.781765 -2.4059
upperneck 12.6922 -0.556303 -0.78207
head 5.53642 -0.442774 0.104939
rclavicle -7.81472e-015 1.27222e-014
rhumerus -62.1352 -37.5443 -43.1871
rradius 12.7599
rwrist 41.2762
rhand -17.7344 -34.8524
rfingers 7.12502
rthumb 8.52664 -64.6603
lclavicle -7.81472e-015 1.27222e-014
lhumerus -18.1667 -5.33788 92.0349
lradius 40.058
lwrist 21.9869
lhand -27.6627 -15.7249
lfingers 7.12502
lthumb -1.06018 14.2522
rfemur -36.5628 1.79492 26.8045
rtibia 46.1436
rfoot -15.4338 9.17434
rtoes 3.36115
lfemur -7.9005 3.90567 -18.7796
ltibia 61.8086
lfoot 3.68171 0.974961
ltoes -16.4009
60
root 6.66522 15.3961 -23.8858 7.43467 0.803221 -0.922068
lowerback 0.841034 0.72365 2.06288
upperback -3.28197 1.13109 3.07067
thorax -3.87601 0.553224 1.96339
lowerneck -10.1858 -0.774573 -2.75302
upperneck 12.5155 -0.579597 -0.204661
head 5.45737 -0.427062 0.341496
rclavicle 1.78658e-014 3.73715e-014
rhumerus -57.3111 -35.8405 -49.5972
rradius 13.2906
rwrist 36.975
rhand -17.5834 -35.9519
rfingers 7.12502
rthumb 8.67236 -65.7538
lclavicle 1.78658e-014 3.73715e-014
lhumerus -19.6304 -5.53906 92.4054
lradius 38.4517
lwrist 21.9323
lhand -27.5277 -15.347
lfingers 7.12502
lthumb -0.929739 14.6307
rfemur -35.2761 1.92303 26.9619
rtibia 45.5303
rfoot -15.8716 9.30788
rtoes 3.79955
lfemur -9.89766 4.64284 -18.5998
ltibia 62.938
lfoot 4.25137 0.754926
ltoes -11.3841
61
root 6.65955 15.4393 -23.6643 7.25337 0.774486 -0.927714
lowerback 0.874257 0.846789 1.98447
upperback -3.20032 1.29269 3.09937
thorax -3.81561 0.636978 2.02989
lowerneck -10.177 -0.80319 -3.02656
upperneck 12.634 -0.597732 -0.0350074
head 5.49477 -0.437855 0.437846
rclavicle 6.16232e-015 -1.74931e-014
rhumerus -52.7292 -33.1847 -55.7027
rradius 13.9953
rwrist 32.2262
rhand -18.6589 -36.1039
rfingers 7.12502
rthumb 7.63436 -65.9461
lclavicle 6.16232e-015 -1.74931e-014
lhumerus -21.1245 -5.14152 92.8315
lradius 36.7969
lwrist 21.6517
lhand -27.8776 -13.7757
lfingers 7.12502
lthumb -1.26771 16.2002
rfemur -33.7876 2.0765 26.9828
rtibia 44.8703
rfoot -16.303 9.3891
rtoes 5.04009
lfemur -11.8358 5.19571 -18.6154
ltibia 63.86
lfoot 3.58104 0.339705
ltoes -14.1969
